<svg xmlns="http://www.w3.org/2000/svg" width="280" height="280" viewBox="0 0 280 280"><defs><style>.a{fill:#fffdf7;stroke:#58a449;stroke-width:2px;opacity:0.9;}.b{fill:#222;font-size:20px;font-family:Lato-Regular, Lato;}.c{fill:#58a449;}.d{stroke:none;}.e{fill:none;}</style></defs><g transform="translate(-48 -24)"><g class="a" transform="translate(48 24)"><rect class="d" width="280" height="280" rx="140"/><rect class="e" x="1" y="1" width="278" height="278" rx="139"/></g><text class="b" transform="translate(65 56)"><tspan x="123.5" y="20"></tspan><tspan x="47.76" y="44">Hevur tú hugskot </tspan><tspan x="43.805" y="68">til granskingarevni </tspan><tspan x="36.635" y="92">ella vilt tú spyrja ein </tspan><tspan x="33.79" y="116">granskara eitthvørt ?</tspan><tspan x="123.5" y="140"></tspan><tspan x="54.05" y="164">Skriva til okkara</tspan></text><path class="c" d="M30.75,5.625H5.25a3.009,3.009,0,0,0-3,3v18.75a3.009,3.009,0,0,0,3,3h25.5a3.009,3.009,0,0,0,3-3V8.625A3.009,3.009,0,0,0,30.75,5.625ZM30.375,12,18,20.25,5.625,12V9L18,17.25,30.375,9Z" transform="translate(169.75 239.375)"/></g></svg>