<svg xmlns="http://www.w3.org/2000/svg" xmlns:xlink="http://www.w3.org/1999/xlink" width="186" height="122" viewBox="0 0 186 122"><defs><style>.a,.d{fill:#74ab58;}.b{fill:#fff;font-size:22px;font-family:Lato-Regular, Lato, Arial;}.c,.d{stroke:none;}.e{filter:url(#a);}</style><filter id="a" x="0" y="0" width="186" height="122" filterUnits="userSpaceOnUse"><feOffset dy="3" input="SourceAlpha"/><feGaussianBlur stdDeviation="3" result="b"/><feFlood flood-opacity="0.161"/><feComposite operator="in" in2="b"/><feComposite in="SourceGraphic"/></filter></defs><g transform="translate(1 6)"><g class="e" transform="matrix(1, 0, 0, 1, -1, -6)"><g class="a" transform="translate(9 6)"><path class="c" d="M 84 103 C 38.2336540222168 103 1 80.12149810791016 1 52 C 1 23.87849998474121 38.2336540222168 1 84 1 C 129.7663421630859 1 167 23.87849998474121 167 52 C 167 57.66660690307617 165.4869384765625 63.23347854614258 162.5028228759766 68.54597473144531 C 159.5897827148438 73.73195648193359 155.31640625 78.61245727539062 149.8014526367188 83.05187225341797 C 146.0713958740234 86.05489349365234 141.7699127197266 88.80958557128906 137.0164947509766 91.23945617675781 C 132.2233428955078 93.68965148925781 126.9730224609375 95.80815124511719 121.4113693237305 97.53608703613281 C 115.7355880737305 99.29949951171875 109.7264099121094 100.6584777832031 103.5507354736328 101.5752792358398 C 97.18256378173828 102.5206527709961 90.604736328125 103 84 103 Z"/><path class="d" d="M 84 2 C 72.8309326171875 2 62.00065612792969 3.352928161621094 51.80999755859375 6.021202087402344 C 46.92268371582031 7.300865173339844 42.21122741699219 8.883773803710938 37.80647277832031 10.72592926025391 C 33.45556640625 12.54557037353516 29.36747741699219 14.63324737548828 25.65573120117188 16.93097686767578 C 21.96063232421875 19.21842956542969 18.61004638671875 21.73165893554688 15.69705200195312 24.40088653564453 C 12.77609252929688 27.07738494873047 10.27139282226562 29.93270111083984 8.252471923828125 32.88754272460938 C 4.1036376953125 38.95977020263672 2 45.39013671875 2 52 C 2 58.60986328125 4.1036376953125 65.04022216796875 8.252471923828125 71.11245727539062 C 10.27139282226562 74.06729125976562 12.77609252929688 76.92261505126953 15.69705200195312 79.59911346435547 C 18.61004638671875 82.26834106445312 21.96063232421875 84.78157043457031 25.65573120117188 87.06902313232422 C 29.36747741699219 89.36675262451172 33.45556640625 91.45442962646484 37.80647277832031 93.27407073974609 C 42.21122741699219 95.11622619628906 46.92268371582031 96.69913482666016 51.80999755859375 97.97879791259766 C 62.00065612792969 100.6470718383789 72.8309326171875 102 84 102 C 90.55574798583984 102 97.08415985107422 101.5242919921875 103.4038848876953 100.5861129760742 C 109.5289535522461 99.67681884765625 115.4877319335938 98.32933807373047 121.1146545410156 96.58111572265625 C 126.6218872070312 94.87008666992188 131.8189086914062 92.7733154296875 136.5613098144531 90.34906768798828 C 141.2538909912109 87.95029449462891 145.4974975585938 85.23311614990234 149.1743927001953 82.27291107177734 C 154.5896148681641 77.91377258300781 158.7806091308594 73.13059234619141 161.6309509277344 68.05622863769531 C 164.5300445556641 62.89509201049805 166 57.49300003051758 166 52 C 166 45.39013671875 163.8963623046875 38.95977020263672 159.7475280761719 32.88754272460938 C 157.7286071777344 29.93270111083984 155.2239074707031 27.07738494873047 152.3029479980469 24.40088653564453 C 149.3899536132812 21.73165893554688 146.0393676757812 19.21842956542969 142.3442687988281 16.93097686767578 C 138.6325225830078 14.63324737548828 134.54443359375 12.54557037353516 130.1935272216797 10.72592926025391 C 125.7887725830078 8.883773803710938 121.0773162841797 7.300865173339844 116.1900024414062 6.021202087402344 C 105.9993438720703 3.352928161621094 95.1690673828125 2 84 2 M 84 0 C 130.3919372558594 0 168 23.28120422363281 168 52 C 168 63.91825103759766 161.5229949951172 74.9000244140625 150.4284973144531 83.83086395263672 C 135.2726440429688 96.03254699707031 111.1393585205078 104 84 104 C 37.60806274414062 104 0 80.71879577636719 0 52 C 0 23.28120422363281 37.60806274414062 0 84 0 Z"/></g></g><text class="b" transform="translate(24 40)"><tspan x="0.592" y="22">SKRÁIN 2021</tspan></text></g></svg>
