<svg xmlns="http://www.w3.org/2000/svg" xmlns:xlink="http://www.w3.org/1999/xlink" width="186" height="122" viewBox="0 0 186 122"><defs><style>.a,.d{fill:#01a0dd;}.b{fill:#fff;font-size:22px;font-family:Lato-Regular, Lato, Arial;}.c,.d{stroke:none;}.e{filter:url(#a);}</style><filter id="a" x="0" y="0" width="186" height="122" filterUnits="userSpaceOnUse"><feOffset dy="3" input="SourceAlpha"/><feGaussianBlur stdDeviation="3" result="b"/><feFlood flood-opacity="0.161"/><feComposite operator="in" in2="b"/><feComposite in="SourceGraphic"/></filter></defs><g transform="translate(1 6)"><g class="e" transform="matrix(1, 0, 0, 1, -1, -6)"><g class="a" transform="translate(9 6)"><path class="c" d="M 84 103 C 38.2336540222168 103 1 80.12149810791016 1 52 C 1 23.87849998474121 38.2336540222168 1 84 1 C 129.7663421630859 1 167 23.87849998474121 167 52 C 167 57.66658782958984 165.4869384765625 63.23345565795898 162.5028228759766 68.54595947265625 C 159.5897827148438 73.73195648193359 155.31640625 78.61245727539062 149.8014526367188 83.05187225341797 C 145.7478332519531 86.31539154052734 141.0300903320312 89.27674102783203 135.7792205810547 91.85371398925781 C 130.4586029052734 94.46493530273438 124.5875244140625 96.68258666992188 118.3290634155273 98.445068359375 C 113.1239776611328 99.9111328125 107.6093902587891 101.0426559448242 101.9384384155273 101.8081970214844 C 96.08028411865234 102.5990219116211 90.04491424560547 103 84 103 Z"/><path class="d" d="M 84 2 C 72.8309326171875 2 62.00065612792969 3.352928161621094 51.80999755859375 6.021202087402344 C 46.92268371582031 7.300865173339844 42.21122741699219 8.883773803710938 37.80647277832031 10.72592926025391 C 33.45556640625 12.54557037353516 29.36747741699219 14.63324737548828 25.65573120117188 16.93097686767578 C 21.96063232421875 19.21842956542969 18.61004638671875 21.73165893554688 15.69705200195312 24.40088653564453 C 12.77609252929688 27.07738494873047 10.27139282226562 29.93270111083984 8.252471923828125 32.88754272460938 C 4.1036376953125 38.95977020263672 2 45.39013671875 2 52 C 2 58.60986328125 4.1036376953125 65.04022216796875 8.252471923828125 71.11245727539062 C 10.27139282226562 74.06729125976562 12.77609252929688 76.92261505126953 15.69705200195312 79.59911346435547 C 18.61004638671875 82.26834106445312 21.96063232421875 84.78157043457031 25.65573120117188 87.06902313232422 C 29.36747741699219 89.36675262451172 33.45556640625 91.45442962646484 37.80647277832031 93.27407073974609 C 42.21122741699219 95.11622619628906 46.92268371582031 96.69913482666016 51.80999755859375 97.97879791259766 C 62.00065612792969 100.6470718383789 72.8309326171875 102 84 102 C 90.00032043457031 102 95.99066162109375 101.6020431518555 101.8046569824219 100.8171844482422 C 107.4293670654297 100.0578842163086 112.8977508544922 98.93595123291016 118.0579986572266 97.48252105712891 C 124.2582550048828 95.73641204833984 130.0722961425781 93.54056549072266 135.3386383056641 90.95600128173828 C 140.5232238769531 88.41154479980469 145.1782073974609 85.49015808105469 149.1743927001953 82.27288818359375 C 154.5896148681641 77.91374969482422 158.7806091308594 73.13059234619141 161.6309509277344 68.05622863769531 C 164.5300445556641 62.89509201049805 166 57.49300003051758 166 52 C 166 45.39013671875 163.8963623046875 38.95977020263672 159.7475280761719 32.88754272460938 C 157.7286071777344 29.93270111083984 155.2239074707031 27.07738494873047 152.3029479980469 24.40088653564453 C 149.3899536132812 21.73165893554688 146.0393676757812 19.21842956542969 142.3442687988281 16.93097686767578 C 138.6325225830078 14.63324737548828 134.54443359375 12.54557037353516 130.1935272216797 10.72592926025391 C 125.7887725830078 8.883773803710938 121.0773162841797 7.300865173339844 116.1900024414062 6.021202087402344 C 105.9993438720703 3.352928161621094 95.1690673828125 2 84 2 M 84 0 C 130.3919372558594 0 168 23.28120422363281 168 52 C 168 63.91825103759766 161.5229949951172 74.9000244140625 150.4284973144531 83.83084106445312 C 142.2140960693359 90.44413757324219 131.3624267578125 95.81354522705078 118.6001358032227 99.40763854980469 C 108.2292709350586 102.3286819458008 96.42990875244141 104 84 104 C 37.60806274414062 104 0 80.71879577636719 0 52 C 0 23.28120422363281 37.60806274414062 0 84 0 Z"/></g></g><text class="b" transform="translate(24 39)"><tspan x="2.682" y="22">EFTIRMETING</tspan></text></g></svg>
